<?xml version="1.0" encoding="UTF-8"?>
<svg width="471px" height="468px" viewBox="0 0 471 468" xmlns="http://www.w3.org/2000/svg" xmlns:xlink="http://www.w3.org/1999/xlink" version="1.1">
 <!-- Generated by Pixelmator Pro 2.0.1 -->
 <path id="Rounded-Rectangle" d="M48 6 C25.909 6 8 23.909 8 46 L8 422 C8 444.091 25.909 462 48 462 L424 462 C446.091 462 464 444.091 464 422 L464 46 C464 23.909 446.091 6 424 6 Z" fill="#00a2ff" fill-opacity="1" stroke="#0376bb" stroke-width="8" stroke-opacity="1" stroke-linejoin="round"/>
 <g id="layer1">
  <g id="g2582">
   <path id="path2439" d="M187.575 448.474 C151.905 446.202 122.74 439.432 97.75 427.623 85.161 421.674 86.109 424.825 89.315 399.588 L91.538 382.088 89.232 356.588 C87.725 339.917 86.495 330.742 85.68 330.088 84.994 329.538 81.786 324.363 78.55 318.588 69.992 303.313 59.875 288.06 47.376 271.588 32.614 252.135 28.463 245.854 23.818 235.941 14.522 216.103 14.766 197.603 24.586 177.709 28.153 170.481 30.854 166.674 36.358 161.117 60.539 136.7 97.315 134.157 137.123 154.15 165.499 168.401 185.378 184.769 206.883 211.588 208.382 213.457 207.541 209.925 203.55 197.588 195.905 173.959 194.55 166.771 194.591 150.088 194.62 138.164 194.962 135.125 196.896 129.588 202.044 114.854 211.601 103.177 222.769 97.979 L228.979 95.088 228.99 75.338 229 55.588 212.5 55.588 196 55.588 196 48.088 196 40.588 212.5 40.588 229 40.588 229 29.588 229 18.588 236.5 18.588 244 18.588 244 29.588 244 40.588 260 40.588 276 40.588 276 48.088 276 55.588 260 55.588 244 55.588 244 75.471 244 95.353 249.75 98.157 C260.56 103.427 270.093 115.245 275.104 129.588 277.038 135.125 277.38 138.164 277.409 150.088 277.45 166.771 276.095 173.959 268.45 197.588 264.459 209.925 263.618 213.457 265.117 211.588 286.622 184.769 306.501 168.401 334.877 154.15 374.685 134.157 411.461 136.7 435.642 161.117 441.146 166.674 443.847 170.481 447.414 177.709 457.234 197.603 457.478 216.103 448.182 235.941 443.537 245.854 439.386 252.135 424.624 271.588 412.125 288.06 402.008 303.313 393.45 318.588 390.214 324.363 387.006 329.538 386.32 330.088 385.505 330.742 384.275 339.917 382.768 356.588 L380.462 382.088 382.685 399.588 C385.883 424.758 386.685 421.78 375.25 427.157 361.203 433.761 354.174 436.3 339.356 440.122 322.998 444.341 303.442 447.215 282 448.551 263.017 449.734 206.624 449.688 187.575 448.474 Z" fill="#000000" fill-opacity="1" stroke="none"/>
   <path id="path2578" d="M237 271.891 C237 270.958 243.53 250.773 251.512 227.035 267.241 180.256 269.65 171.311 270.617 156.088 271.849 136.703 267.195 121.624 256.785 111.272 249.446 103.974 245.236 102.121 236 102.121 226.764 102.121 222.554 103.974 215.215 111.272 204.805 121.624 200.151 136.703 201.383 156.088 202.35 171.311 204.759 180.256 220.488 227.035 228.47 250.773 235 270.958 235 271.891 235 272.825 235.45 273.588 236 273.588 236.55 273.588 237 272.825 237 271.891 Z" fill="#ffffff" fill-opacity="1" stroke="none"/>
   <path id="path2572" d="M114.182 331.074 C135.837 324.897 162.074 319.931 189 316.913 210.679 314.483 261.321 314.483 283 316.913 309.926 319.931 336.163 324.897 357.818 331.074 364.592 333.007 370.97 334.588 371.991 334.588 375.546 334.588 379.955 329.405 387.13 316.788 397.344 298.829 406.917 284.334 419.624 267.588 433.98 248.67 438.587 241.776 442.202 233.802 457.429 200.22 441.535 162.236 407.5 150.872 400.336 148.48 398.036 148.203 385.5 148.219 373.642 148.233 370.035 148.63 361.926 150.81 335.857 157.818 310.261 173.398 287.527 196.095 274.304 209.296 264.744 222.027 257.092 236.624 251.575 247.148 246.97 263.259 242.823 286.544 L240.5 299.586 236 299.586 231.5 299.586 229.177 286.544 C225.03 263.259 220.425 247.148 214.908 236.624 207.256 222.027 197.696 209.296 184.473 196.095 161.739 173.398 136.143 157.818 110.074 150.81 101.965 148.63 98.358 148.233 86.5 148.219 73.964 148.203 71.664 148.48 64.5 150.872 30.465 162.236 14.571 200.22 29.798 233.802 33.413 241.776 38.02 248.67 52.376 267.588 65.083 284.334 74.656 298.829 84.87 316.788 92.045 329.405 96.454 334.588 100.009 334.588 101.03 334.588 107.408 333.007 114.182 331.074 Z" fill="#ffffff" fill-opacity="1" stroke="none"/>
   <path id="path2570" d="M116.923 385.66 C140.204 377.094 167.469 370.51 194.5 366.928 204.204 365.642 214.727 365.206 236 365.206 257.273 365.206 267.796 365.642 277.5 366.928 304.674 370.529 331.787 377.091 355.406 385.782 367.518 390.238 370.241 390.195 372.873 385.506 374.849 381.985 373.626 377.94 369.901 375.674 365.283 372.866 337.489 363.891 321.603 360.078 290.082 352.512 269.458 350.11 236 350.11 196.305 350.11 164.547 354.839 128.224 366.159 103.342 373.913 98 376.776 98 382.356 98 385.046 102.132 389.588 104.579 389.588 105.498 389.588 111.053 387.821 116.923 385.66 Z" fill="#ffffff" fill-opacity="1" stroke="none"/>
   <path id="path2568" d="M110.112 425.698 C137.772 413.184 176.532 403.499 210.304 400.663 260.536 396.445 313.998 405.144 360.439 425.09 L368.844 428.701 373.922 426.128 C384.916 420.557 378.646 415.325 347.5 404.082 313.998 391.989 271.743 384.609 236 384.609 200.257 384.609 158.002 391.989 124.5 404.082 93.62 415.229 87.173 420.517 97.75 426.022 100.362 427.382 102.775 428.516 103.112 428.542 103.448 428.567 106.598 427.288 110.112 425.698 Z" fill="#ffffff" fill-opacity="1" stroke="none"/>
   <path id="path2580" d="M227.688 223.838 C218.948 197.847 214.705 181.842 212.378 166.088 208.909 142.598 213.592 124.519 225.124 116.888 228.691 114.527 230.395 114.088 236 114.088 241.605 114.088 243.309 114.527 246.876 116.888 261.905 126.833 264.599 150.833 254.979 189.088 251.639 202.372 237.044 246.588 236 246.588 235.636 246.588 231.896 236.351 227.688 223.838 Z" fill="#000000" fill-opacity="1" stroke="none"/>
   <path id="path2576" d="M369 315.455 C367.625 314.902 359.75 312.695 351.5 310.552 322.805 303.099 294.711 298.97 265.467 297.91 L248.434 297.292 249.15 289.787 C253.172 247.691 279.648 208.768 324.898 178.432 364.476 151.899 399.029 148.494 421.608 168.901 434.002 180.103 439.611 200.605 435.538 219.822 432.605 233.662 426.792 243.652 403.795 274.372 397.502 282.778 388.585 295.715 383.979 303.122 375.174 317.281 374.636 317.724 369 315.455 Z" fill="#000000" fill-opacity="1" stroke="none"/>
   <path id="path2574" d="M88.069 303.199 C83.437 295.75 74.498 282.778 68.205 274.372 50.394 250.579 46.247 244.393 41.917 235.151 32.835 215.772 32.751 197.37 41.665 180.406 49.606 165.295 66.965 155.588 86.049 155.588 108.8 155.588 138.371 169.395 167.084 193.424 200.345 221.259 219.463 254.338 222.864 289.935 L223.595 297.588 213.547 297.598 C185.332 297.627 145.102 303.549 114.5 312.178 107.35 314.194 100.373 316.046 98.996 316.293 96.72 316.702 95.722 315.506 88.069 303.199 Z" fill="#000000" fill-opacity="1" stroke="none"/>
  </g>
 </g>
</svg>
